<?xml version='1.0' encoding='utf-8'?>
<!DOCTYPE svg>
<!-- Generator: Adobe Illustrator 14.0.0, SVG Export Plug-In . SVG Version: 6.00 Build 43363)  -->
<svg xmlns="http://www.w3.org/2000/svg" gorn="0" xmlns:xml="http://www.w3.org/XML/1998/namespace" x="0px" y="0px" viewBox="0 0 32 32" width="0.444444in" height="0.444444in" id="svg" xml:space="preserve"  version="1.1" baseProfile="basic">
    <desc>
        <referenceFile>lcd-GDM1602K.svg</referenceFile>
    </desc>
    <g gorn="0.0" id="icon" >
        <path d="M71.354,32V-0.088H0.048V32H71.354z" fill="#1F7A34" />
        <g >
            <path d="M66.193,5.766c0-0.231-0.189-0.42-0.42-0.42H5.63c-0.231,0-0.42,0.189-0.42,0.42v0.232c0,0.231,0.189,0.42,0.42,0.42h60.144c0.23,0,0.42-0.189,0.42-0.42V5.766z" fill="#1A1A1A" />
            <path d="M65.983,6.142c0-0.152-0.136-0.276-0.301-0.276H5.745c-0.166,0-0.301,0.125-0.301,0.276c0,0.152,0.135,0.277,0.301,0.277h59.938C65.847,6.418,65.983,6.294,65.983,6.142z" fill="#424242" />
        </g>
        <g >
            <line stroke-opacity="0.2" stroke="#F2F2F2" fill="none" stroke-width="0.2358" y1="-18.755" y2="-20.868"  x1="119.898" stroke-linecap="round" x2="117.785"/>
            <line stroke-opacity="0.2" stroke="#F2F2F2" fill="none" stroke-width="0.2358" y1="53.049" y2="50.936"  x1="117.763" stroke-linecap="round" x2="119.877"/>
        </g>
        <g >
            <path d="M81.576,21.522V10.478h0.317V2.436h-0.049L81.05,1.642V1.365h-0.275H2.656H2.38v0.276L1.587,2.436H1.537v8.042h0.319v11.045H1.537v8.04h0.049l0.793,0.796v0.276h0.001v-0.117l0,0v-0.103h78.667v0.103l0,0v0.117h0.001v-0.276l0.795-0.796h0.049v-8.04H81.576z M81.049,1.484L81.049,1.484v0.104H2.382V1.485V1.484V1.367h78.667V1.484z" fill="#303030" />
            <polygon points="1.316,2.436 1.316,2.436 1.316,2.706 1.316,10.478 1.316,10.478 " fill="#303030" />
            <polygon points="82.115,10.478 82.115,2.706 82.115,2.436 82.114,2.436 82.114,10.478 " fill="#303030" />
            <polygon points="1.316,21.522 1.316,29.294 1.316,29.562 1.316,29.562 1.316,21.522 " fill="#303030" />
            <polygon points="82.114,29.562 82.115,29.562 82.115,29.294 82.115,21.522 82.114,21.522 " fill="#303030" />
            <rect x="2.382" y="1.367" fill="#212121" width="78.667" height="0.117" />
            <rect x="2.382" y="1.485" fill="#606060" width="78.667" height="0.103" />
            <rect x="2.382" y="1.484" fill="#606060" width="78.667" height="0.001" />
            <rect x="1.316" y="2.436" fill="#212121" width="0.117" height="0" />
            <rect x="1.316" y="21.522" fill="#212121" width="0.117" height="8.04" />
            <rect x="1.316" y="2.436" fill="#212121" width="0.117" height="8.042" />
            <rect x="1.486" y="2.384" fill="#606060" width="0" height="0.104" />
            <rect x="1.434" y="21.522" fill="#606060" width="0.104" height="8.04" />
            <rect x="1.434" y="2.436" fill="#606060" width="0.104" height="8.042" />
            <rect x="1.433" y="2.435" fill="#606060" width="0" height="0.001" />
            <rect x="1.433" y="2.436" fill="#606060" width="0.001" height="8.042" />
            <rect x="1.433" y="21.522" fill="#606060" width="0.001" height="8.04" />
            <rect x="82.055" y="2.376" fill="#212121" width="0" height="0.118" />
            <rect x="81.996" y="2.436" fill="#212121" width="0.118" height="8.042" />
            <rect x="81.996" y="21.522" fill="#212121" width="0.118" height="8.04" />
            <rect x="81.893" y="2.436" fill="#606060" width="0.103" height="0" />
            <rect x="81.893" y="21.522" fill="#606060" width="0.103" height="8.04" />
            <rect x="81.893" y="2.436" fill="#606060" width="0.103" height="8.042" />
            <polygon points="2.656,30.635 2.382,30.635 2.382,30.635 81.049,30.635 81.049,30.635 80.774,30.635 " fill="#2B2B2B" />
            <polygon points="2.382,30.518 2.382,30.635 2.656,30.635 80.774,30.635 81.049,30.635 81.049,30.518 " fill="#2B2B2B" />
            <rect x="2.382" y="30.415" fill="#606060" width="78.667" height="0.103" />
            <rect x="2.382" y="30.518" fill="#606060" width="78.667" height="0" />
        </g>
        <g >
            <path d="M78.642,23.89c0,0.855-0.699,1.556-1.554,1.556H6.343c-0.854,0-1.555-0.7-1.555-1.556V8.109c0-0.855,0.7-1.555,1.555-1.555h70.746c0.854,0,1.554,0.699,1.554,1.555V23.89z" fill="#87AD34" />
            <g opacity="0.2" >
                <path d="M6.343,6.555c-0.854,0-1.555,0.7-1.555,1.555v15.78c0,0.855,0.7,1.556,1.555,1.556h0.901c-0.855,0-1.554-0.7-1.554-1.556V8.628c0-0.854,0.699-1.555,1.554-1.555h70.991c-0.285-0.315-0.693-0.519-1.148-0.519H6.343z M78.64,8.1v15.8c0-0.004,0.001-0.007,0.001-0.01V8.109C78.641,8.106,78.64,8.103,78.64,8.1z" fill="#22420D" />
            </g>
        </g>
        <g >
            <path d="M79.3,28.027c0-0.284-0.233-0.517-0.518-0.517H4.649c-0.284,0-0.518,0.232-0.518,0.517v0.286c0,0.285,0.234,0.519,0.518,0.519h74.133c0.284,0,0.518-0.233,0.518-0.519V28.027z" fill="#1A1A1A" />
            <path d="M79.042,28.491c0-0.188-0.168-0.341-0.371-0.341H4.791c-0.205,0-0.371,0.153-0.371,0.341c0,0.187,0.167,0.341,0.371,0.341h73.879C78.874,28.832,79.042,28.678,79.042,28.491z" fill="#424242" />
        </g>
        <g >
            <line stroke-opacity="0.2" stroke="#F2F2F2" fill="none" stroke-width="0.0914" y1="2.492" y2="1.673"  x1="1.62" stroke-linecap="round" x2="2.439"/>
            <line stroke-opacity="0.2" stroke="#F2F2F2" fill="none" stroke-width="0.0914" y1="30.323" y2="29.503"  x1="2.448" stroke-linecap="round" x2="1.629"/>
        </g>
        <path stroke-opacity="0.4" d="M78.641,23.89c0,0.855-0.701,1.556-1.555,1.556H6.343c-0.854,0-1.555-0.7-1.555-1.556V8.109c0-0.854,0.7-1.555,1.555-1.555h70.744c0.854,0,1.555,0.7,1.555,1.555V23.89z" stroke="#1A1A1A" fill="none" stroke-width="0.5484" />
        <rect x="8.54" y="16.634" fill="#1A1A1A" width="3.887" height="6.405" fill-opacity="0.15" />
        <rect x="13.704" y="16.634" fill="#1A1A1A" width="3.885" height="6.405" fill-opacity="0.15" />
        <rect x="18.868" y="16.634" fill="#1A1A1A" width="3.887" height="6.405" fill-opacity="0.15" />
        <rect x="24.033" y="16.634" fill="#1A1A1A" width="3.888" height="6.405" fill-opacity="0.15" />
        <rect x="29.198" y="16.634" fill="#1A1A1A" width="3.886" height="6.405" fill-opacity="0.15" />
        <rect x="8.54" y="8.962" fill="#1A1A1A" width="3.887" height="6.404" fill-opacity="0.15" />
        <rect x="13.704" y="8.962" fill="#1A1A1A" width="3.885" height="6.404" fill-opacity="0.15" />
        <rect x="18.868" y="8.962" fill="#1A1A1A" width="3.887" height="6.404" fill-opacity="0.15" />
        <rect x="24.033" y="8.962" fill="#1A1A1A" width="3.888" height="6.404" fill-opacity="0.15" />
        <rect x="29.198" y="8.962" fill="#1A1A1A" width="3.886" height="6.404" fill-opacity="0.15" />
    </g>
</svg>
